<?xml version="1.0" encoding="utf-8"?>
<!-- Generator: Adobe Illustrator 24.1.1, SVG Export Plug-In . SVG Version: 6.00 Build 0)  -->
<svg version="1.1" id="Layer_1" xmlns="http://www.w3.org/2000/svg" xmlns:xlink="http://www.w3.org/1999/xlink" x="0px" y="0px"
	 viewBox="0 0 512 512" style="enable-background:new 0 0 512 512;" xml:space="preserve">
<g>
	<path d="M497.9,75l-14.1-17.7L144.3,328.8l28.3,35.3L512,92.6l-28.3-35.3L497.9,75l-14.1-17.7L144.3,328.8l28.3,35.3L512,92.6
		l-28.3-35.3L497.9,75z M497.9,437l14.1-17.7L172.5,147.8l-28.3,35.3l339.5,271.6l28.3-35.3L497.9,437l14.1-17.7L172.5,147.8
		l-28.3,35.3l339.5,271.6l28.3-35.3L497.9,437z M90.5,188.1v22.6c50,0,90.5-40.5,90.5-90.5c0-50-40.5-90.5-90.5-90.5
		C40.5,29.7,0,70.2,0,120.2c0,50,40.5,90.5,90.5,90.5V188.1v-22.6c-25,0-45.2-20.3-45.3-45.3c0-25,20.3-45.2,45.3-45.3
		c25,0,45.2,20.3,45.3,45.3c0,25-20.3,45.2-45.3,45.3V188.1z M90.5,459.7v22.6c50,0,90.5-40.5,90.5-90.5c0-50-40.5-90.5-90.5-90.5
		c-50,0-90.5,40.5-90.5,90.5c0,50,40.5,90.5,90.5,90.5V459.7V437c-25,0-45.2-20.3-45.3-45.3c0-25,20.3-45.2,45.3-45.3
		c25,0,45.2,20.3,45.3,45.3c0,25-20.3,45.2-45.3,45.3V459.7z"/>
</g>
</svg>
