<?xml version="1.0" encoding="utf-8"?>
<!-- Generator: Adobe Illustrator 27.5.0, SVG Export Plug-In . SVG Version: 6.00 Build 0)  -->
<svg version="1.1" id="Layer_1" xmlns="http://www.w3.org/2000/svg" xmlns:xlink="http://www.w3.org/1999/xlink" x="0px" y="0px"
	 viewBox="0 0 512 512" style="enable-background:new 0 0 512 512;" xml:space="preserve">
<g>
	<path d="M312.52-0.29c4.86-0.01,9.53,1.92,12.97,5.35l181.43,181.43c7.15,7.16,7.15,18.76,0,25.91
		c-17.59,17.59-39.29,21.55-55.09,21.55c-6.49,0-12.28-0.66-16.86-1.43L320.11,347.4c3.02,12.18,4.99,24.61,5.86,37.13
		c1.69,25.73-1.17,61.83-26.39,87.05c-7.16,7.15-18.76,7.15-25.91,0L169.98,367.92L53.35,484.55c-7.15,7.15-44.68,33.06-51.83,25.91
		c-7.15-7.15,18.77-44.72,25.91-51.83l116.63-116.63L40.42,238.32c-7.15-7.16-7.15-18.76,0-25.91
		c25.22-25.22,61.32-28.11,87.05-26.39c12.52,0.88,24.95,2.84,37.13,5.86L279.46,77.05c-0.96-5.58-1.45-11.23-1.47-16.9
		c0-15.76,3.96-37.46,21.59-55.09C303.02,1.64,307.67-0.29,312.52-0.29z"/>
</g>
</svg>
