<svg width="16" height="16" viewBox="0 0 16 16" fill="none" xmlns="http://www.w3.org/2000/svg">
<rect x="3.5" y="2.5" width="9" height="11" rx="0.5" stroke="white"/>
<path d="M5.5 6C5.5 5.44772 5.94772 5 6.5 5C7.05228 5 7.5 5.44772 7.5 6C7.5 6.55228 7.05228 7 6.5 7C5.94772 7 5.5 6.55228 5.5 6Z" stroke="white"/>
<path d="M5.5 10C5.5 9.44772 5.94772 9 6.5 9C7.05228 9 7.5 9.44772 7.5 10C7.5 10.5523 7.05228 11 6.5 11C5.94772 11 5.5 10.5523 5.5 10Z" stroke="white"/>
<path d="M9.5 6H10.5" stroke="white" stroke-linecap="round"/>
<path d="M9.5 10H10.5" stroke="white" stroke-linecap="round"/>
</svg>
