<?xml version="1.0" encoding="utf-8"?>
<!-- Generator: Adobe Illustrator 27.2.0, SVG Export Plug-In . SVG Version: 6.00 Build 0)  -->
<svg version="1.1" id="Layer_1" xmlns="http://www.w3.org/2000/svg" xmlns:xlink="http://www.w3.org/1999/xlink" x="0px" y="0px"
	 viewBox="0 0 512 512" style="enable-background:new 0 0 512 512;" xml:space="preserve">
<style type="text/css">
	.st0{fill:#212121;}
</style>
<g>
	<path class="st0" d="M204.81,0h102.36c10.6,0,19.2,8.6,19.2,19.2c0,9.72-7.22,17.75-16.6,19.02l-2.6,0.18h-31.98v435.2h31.9
		c9.72,0,17.75,7.22,19.02,16.59l0.18,2.61c0,9.72-7.22,17.75-16.6,19.03l-2.6,0.17H204.81c-10.6,0-19.2-8.6-19.2-19.2
		c0-9.72,7.22-17.75,16.59-19.03l2.61-0.17h31.97V38.4h-31.97c-9.72,0-17.75-7.22-19.02-16.59l-0.18-2.61
		c0-9.72,7.22-17.75,16.59-19.02L204.81,0z M422.3,76.72c45.94,0.03,83.17,37.25,83.22,83.18l0.07,192.13
		c0.05,44.36-34.66,80.63-78.42,83.1l-4.77,0.12l-121.45-0.01V76.72H422.3z M211.13,76.72l-0.12,358.51H89.61
		c-45.95,0-83.2-37.25-83.2-83.2V159.92c0-45.95,37.25-83.2,83.2-83.2H211.13z"/>
</g>
</svg>
